<svg data-v-423bf9ae="" xmlns="http://www.w3.org/2000/svg" viewBox="0 0 326.5333618258272 60" class="font"><!----><!----><!----><g data-v-423bf9ae="" id="f015f47b-d14b-452b-a278-8a1ee2e9a1c6" fill="white" transform="matrix(4.44444465637207,0,0,4.44444465637207,-7.1111040115356445,-14.666665077209473)"><path d="M4.00 4.20L4.00 4.20Q5.04 4.20 5.78 4.45L5.78 4.45L5.78 4.45Q6.51 4.69 7.08 5.77L7.08 5.77L7.08 5.77Q7.64 6.85 7.64 9.10L7.64 9.10L7.64 9.10Q7.64 11.35 7.08 12.43L7.08 12.43L7.08 12.43Q6.51 13.51 5.78 13.76L5.78 13.76L5.78 13.76Q5.04 14 4.00 14L4.00 14L1.60 14L1.60 4.20L4.00 4.20ZM4.24 13.10L4.24 13.10Q5.10 13.10 5.60 12.75L5.60 12.75L5.60 12.75Q6.10 12.40 6.35 11.54L6.35 11.54L6.35 11.54Q6.59 10.67 6.59 9.10L6.59 9.10L6.59 9.10Q6.59 7.53 6.35 6.66L6.35 6.66L6.35 6.66Q6.10 5.80 5.60 5.45L5.60 5.45L5.60 5.45Q5.10 5.10 4.24 5.10L4.24 5.10L2.59 5.10L2.59 13.10L4.24 13.10ZM13.02 6.83L13.02 6.83Q14.42 6.83 15.18 7.79L15.18 7.79L15.18 7.79Q15.93 8.75 15.93 10.33L15.93 10.33L15.93 10.33Q15.93 10.60 15.92 10.74L15.92 10.74L10.89 10.74L10.89 10.74Q10.95 12.03 11.49 12.63L11.49 12.63L11.49 12.63Q12.03 13.24 12.95 13.24L12.95 13.24L12.95 13.24Q13.59 13.24 14.08 12.95L14.08 12.95L14.08 12.95Q14.56 12.66 14.85 12.18L14.85 12.18L15.76 12.67L15.76 12.67Q15.34 13.34 14.61 13.75L14.61 13.75L14.61 13.75Q13.87 14.15 12.98 14.15L12.98 14.15L12.98 14.15Q12.12 14.15 11.40 13.78L11.40 13.78L11.40 13.78Q10.68 13.40 10.25 12.57L10.25 12.57L10.25 12.57Q9.81 11.75 9.81 10.49L9.81 10.49L9.81 10.49Q9.81 9.21 10.26 8.39L10.26 8.39L10.26 8.39Q10.71 7.57 11.44 7.20L11.44 7.20L11.44 7.20Q12.17 6.83 13.02 6.83L13.02 6.83ZM10.93 9.84L14.81 9.84L14.81 9.84Q14.76 8.88 14.31 8.31L14.31 8.31L14.31 8.31Q13.86 7.74 12.98 7.74L12.98 7.74L12.98 7.74Q12.17 7.74 11.61 8.24L11.61 8.24L11.61 8.24Q11.06 8.74 10.93 9.84L10.93 9.84ZM22.68 7L23.73 7L22.02 14L20.03 14L18.33 7L19.38 7L20.78 13.10L21.28 13.10L22.68 7ZM32.63 4.20L32.63 5.10L29.88 5.10L29.88 14L28.88 14L28.88 5.10L26.14 5.10L26.14 4.20L32.63 4.20ZM39.89 7L41.05 7L38.64 14L38.64 14Q38.16 15.27 37.47 15.98L37.47 15.98L37.47 15.98Q36.78 16.69 35.92 16.69L35.92 16.69L35.92 16.69Q35.53 16.69 35.20 16.59L35.20 16.59L35.52 15.72L35.52 15.72Q35.55 15.74 35.64 15.76L35.64 15.76L35.64 15.76Q35.73 15.78 35.85 15.78L35.85 15.78L35.85 15.78Q36.47 15.78 36.88 15.33L36.88 15.33L36.88 15.33Q37.30 14.88 37.69 13.92L37.69 13.92L35.18 7L36.34 7L38.14 12.59L39.89 7ZM46.76 6.83L46.76 6.83Q48.08 6.83 48.73 7.73L48.73 7.73L48.73 7.73Q49.39 8.62 49.39 10.51L49.39 10.51L49.39 10.51Q49.39 12.38 48.67 13.27L48.67 13.27L48.67 13.27Q47.95 14.15 46.62 14.15L46.62 14.15L46.62 14.15Q45.18 14.15 44.42 13.08L44.42 13.08L44.42 16.80L43.41 16.80L43.41 7L44.24 7L44.42 7.99L44.42 8.13L44.42 8.13Q44.81 7.53 45.42 7.18L45.42 7.18L45.42 7.18Q46.02 6.83 46.76 6.83L46.76 6.83ZM46.44 13.24L46.44 13.24Q47.45 13.24 47.91 12.59L47.91 12.59L47.91 12.59Q48.38 11.93 48.38 10.51L48.38 10.51L48.38 10.51Q48.38 9.06 47.97 8.40L47.97 8.40L47.97 8.40Q47.56 7.74 46.58 7.74L46.58 7.74L46.58 7.74Q46.00 7.74 45.54 8.03L45.54 8.03L45.54 8.03Q45.08 8.32 44.79 8.72L44.79 8.72L44.79 8.72Q44.51 9.13 44.42 9.49L44.42 9.49L44.42 11.68L44.42 11.68Q44.51 12.03 44.76 12.38L44.76 12.38L44.76 12.38Q45.01 12.74 45.44 12.99L45.44 12.99L45.44 12.99Q45.86 13.24 46.44 13.24L46.44 13.24ZM54.60 5.15L54.60 5.15Q54.21 5.15 53.94 4.89L53.94 4.89L53.94 4.89Q53.66 4.62 53.66 4.23L53.66 4.23L53.66 4.23Q53.66 3.84 53.94 3.57L53.94 3.57L53.94 3.57Q54.21 3.30 54.60 3.30L54.60 3.30L54.60 3.30Q54.99 3.30 55.26 3.57L55.26 3.57L55.26 3.57Q55.52 3.84 55.52 4.23L55.52 4.23L55.52 4.23Q55.52 4.62 55.26 4.89L55.26 4.89L55.26 4.89Q54.99 5.15 54.60 5.15L54.60 5.15ZM55.13 13.10L57.22 13.10L57.22 14L54.12 14L54.12 7.90L51.65 7.90L51.65 7L55.13 7L55.13 13.10ZM63.74 6.85L63.74 6.85Q64.92 6.85 65.46 7.55L65.46 7.55L65.46 7.55Q66.01 8.25 66.01 9.80L66.01 9.80L66.01 14L65.00 14L65.00 10.14L65.00 10.14Q65.00 9.21 64.88 8.71L64.88 8.71L64.88 8.71Q64.75 8.20 64.44 7.98L64.44 7.98L64.44 7.98Q64.12 7.76 63.52 7.76L63.52 7.76L63.52 7.76Q62.99 7.76 62.51 8.02L62.51 8.02L62.51 8.02Q62.03 8.27 61.73 8.65L61.73 8.65L61.73 8.65Q61.42 9.03 61.35 9.35L61.35 9.35L61.35 14L60.34 14L60.34 9.17L60.34 7L61.17 7L61.31 8.06L61.31 8.06Q61.70 7.50 62.33 7.17L62.33 7.17L62.33 7.17Q62.96 6.85 63.74 6.85L63.74 6.85ZM72.87 13.12L72.87 13.12Q73.70 13.12 74.14 13.49L74.14 13.49L74.14 13.49Q74.58 13.86 74.58 14.49L74.58 14.49L74.58 14.49Q74.58 15.05 74.26 15.53L74.26 15.53L74.26 15.53Q73.95 16.02 73.25 16.32L73.25 16.32L73.25 16.32Q72.56 16.63 71.50 16.63L71.50 16.63L71.50 16.63Q69.96 16.63 69.15 16.19L69.15 16.19L69.15 16.19Q68.35 15.75 68.35 14.94L68.35 14.94L68.35 14.94Q68.35 14.18 69.06 13.59L69.06 13.59L69.06 13.59Q68.77 13.30 68.77 12.82L68.77 12.82L68.77 12.82Q68.77 12.10 69.52 11.47L69.52 11.47L69.52 11.47Q68.52 10.84 68.52 9.37L68.52 9.37L68.52 9.37Q68.52 7.99 69.32 7.41L69.32 7.41L69.32 7.41Q70.13 6.83 71.41 6.83L71.41 6.83L71.41 6.83Q72.76 6.83 73.50 7.42L73.50 7.42L74.42 6.51L75.07 7.13L74.06 8.13L74.06 8.13Q74.30 8.64 74.30 9.37L74.30 9.37L74.30 9.37Q74.30 10.72 73.44 11.32L73.44 11.32L73.44 11.32Q72.58 11.91 71.41 11.91L71.41 11.91L71.41 11.91Q70.73 11.91 70.18 11.76L70.18 11.76L70.18 11.76Q69.78 12.25 69.78 12.63L69.78 12.63L69.78 12.63Q69.78 13.10 70.41 13.10L70.41 13.10L70.80 13.12L72.86 13.12L72.87 13.12ZM71.41 7.73L71.41 7.73Q70.39 7.73 69.99 8.09L69.99 8.09L69.99 8.09Q69.58 8.46 69.58 9.37L69.58 9.37L69.58 9.37Q69.58 10.26 70.02 10.63L70.02 10.63L70.02 10.63Q70.46 11.00 71.41 11.00L71.41 11.00L71.41 11.00Q72.35 11.00 72.79 10.63L72.79 10.63L72.79 10.63Q73.23 10.26 73.23 9.37L73.23 9.37L73.23 9.37Q73.23 8.71 73.06 8.36L73.06 8.36L73.06 8.36Q72.88 8.01 72.50 7.87L72.50 7.87L72.50 7.87Q72.11 7.73 71.41 7.73L71.41 7.73ZM73.51 14.60L73.51 14.60Q73.51 14.34 73.29 14.18L73.29 14.18L73.29 14.18Q73.07 14.01 72.48 14.01L72.48 14.01L70.41 14.01L70.41 14.01Q70.01 14.01 69.72 13.93L69.72 13.93L69.72 13.93Q69.44 14.34 69.44 14.74L69.44 14.74L69.44 14.74Q69.44 14.90 69.48 15.02L69.48 15.02L69.48 15.02Q69.79 15.78 71.50 15.78L71.50 15.78L71.50 15.78Q72.58 15.78 73.05 15.44L73.05 15.44L73.05 15.44Q73.51 15.11 73.51 14.60L73.51 14.60Z"></path></g><!----><!----></svg>